<svg xmlns="http://www.w3.org/2000/svg" viewBox="0 0 118 106" width="118" height="106" shape-rendering="crispEdges">
  <!-- Generated by tools/stadium.py; do not edit by hand. -->
  <symbol id="art" viewBox="0 0 118 106">
    <path style="fill:var(--st-truss,#5d6373)" d="M31 2h7v1h-7zM88 2h7v1h-7zM30 3h7v1h-7zM89 3h4v1h-4zM94 3h2v1h-2zM29 4h3v1h-3zM33 4h4v1h-4zM89 4h5v1h-5zM95 4h2v1h-2zM28 5h3v1h-3zM32 5h3v1h-3zM90 5h1v1h-1zM92 5h1v1h-1zM94 5h1v1h-1zM96 5h2v1h-2zM27 6h3v1h-3zM31 6h3v1h-3zM35 6h1v1h-1zM90 6h2v1h-2zM93 6h1v1h-1zM95 6h1v1h-1zM97 6h2v1h-2zM27 7h2v1h-2zM30 7h1v1h-1zM32 7h1v1h-1zM34 7h2v1h-2zM90 7h2v1h-2zM94 7h1v1h-1zM96 7h1v1h-1zM98 7h1v1h-1zM26 8h2v1h-2zM29 8h1v1h-1zM31 8h2v1h-2zM93 8h1v1h-1zM95 8h1v1h-1zM97 8h3v1h-3zM26 9h1v1h-1zM28 9h1v1h-1zM30 9h4v1h-4zM92 9h3v1h-3zM96 9h1v1h-1zM98 9h2v1h-2zM25 10h3v1h-3zM29 10h4v1h-4zM93 10h3v1h-3zM97 10h1v1h-1zM99 10h2v1h-2zM25 11h2v1h-2zM28 11h1v1h-1zM30 11h1v1h-1zM96 11h1v1h-1zM98 11h1v1h-1zM100 11h1v1h-1zM24 12h2v1h-2zM27 12h1v1h-1zM29 12h1v1h-1zM97 12h1v1h-1zM99 12h3v1h-3zM24 13h1v1h-1zM26 13h1v1h-1zM28 13h3v1h-3zM95 13h2v1h-2zM98 13h1v1h-1zM100 13h2v1h-2zM24 14h2v1h-2zM27 14h1v1h-1zM29 14h2v1h-2zM95 14h3v1h-3zM99 14h1v1h-1zM101 14h1v1h-1zM23 15h2v1h-2zM26 15h1v1h-1zM28 15h2v1h-2zM96 15h1v1h-1zM98 15h1v1h-1zM100 15h3v1h-3zM23 16h1v1h-1zM25 16h1v1h-1zM27 16h3v1h-3zM96 16h2v1h-2zM99 16h1v1h-1zM101 16h2v1h-2zM23 17h2v1h-2zM26 17h1v1h-1zM28 17h2v1h-2zM96 17h3v1h-3zM100 17h1v1h-1zM102 17h1v1h-1zM22 18h2v1h-2zM25 18h1v1h-1zM27 18h1v1h-1zM99 18h1v1h-1zM101 18h3v1h-3zM22 19h1v1h-1zM24 19h1v1h-1zM26 19h1v1h-1zM28 19h1v1h-1zM97 19h2v1h-2zM100 19h1v1h-1zM102 19h2v1h-2zM22 20h2v1h-2zM25 20h1v1h-1zM27 20h2v1h-2zM97 20h3v1h-3zM101 20h1v1h-1zM103 20h1v1h-1zM21 21h2v1h-2zM24 21h1v1h-1zM26 21h2v1h-2zM98 21h1v1h-1zM100 21h1v1h-1zM102 21h3v1h-3zM21 22h1v1h-1zM23 22h1v1h-1zM25 22h1v1h-1zM27 22h1v1h-1zM98 22h2v1h-2zM101 22h1v1h-1zM103 22h2v1h-2zM21 23h2v1h-2zM24 23h1v1h-1zM26 23h2v1h-2zM98 23h3v1h-3zM102 23h1v1h-1zM104 23h1v1h-1zM21 24h1v1h-1zM23 24h1v1h-1zM25 24h3v1h-3zM98 24h2v1h-2zM101 24h1v1h-1zM103 24h2v1h-2zM20 25h3v1h-3zM24 25h1v1h-1zM26 25h1v1h-1zM99 25h2v1h-2zM102 25h1v1h-1zM104 25h2v1h-2zM20 26h2v1h-2zM23 26h1v1h-1zM25 26h2v1h-2zM99 26h1v1h-1zM101 26h1v1h-1zM103 26h1v1h-1zM105 26h1v1h-1zM20 27h1v1h-1zM22 27h1v1h-1zM24 27h1v1h-1zM102 27h1v1h-1zM104 27h2v1h-2zM20 28h2v1h-2zM23 28h1v1h-1zM101 28h1v1h-1zM103 28h1v1h-1zM105 28h1v1h-1zM19 29h2v1h-2zM22 29h1v1h-1zM24 29h3v1h-3zM99 29h2v1h-2zM102 29h1v1h-1zM104 29h3v1h-3zM19 30h1v1h-1zM21 30h1v1h-1zM23 30h1v1h-1zM25 30h1v1h-1zM100 30h2v1h-2zM103 30h1v1h-1zM105 30h2v1h-2zM19 31h2v1h-2zM22 31h1v1h-1zM24 31h2v1h-2zM100 31h3v1h-3zM104 31h1v1h-1zM106 31h1v1h-1zM19 32h1v1h-1zM21 32h1v1h-1zM23 32h3v1h-3zM100 32h2v1h-2zM103 32h1v1h-1zM105 32h2v1h-2zM19 33h2v1h-2zM22 33h1v1h-1zM24 33h2v1h-2zM100 33h3v1h-3zM104 33h1v1h-1zM106 33h1v1h-1zM18 34h2v1h-2zM21 34h1v1h-1zM23 34h3v1h-3zM100 34h2v1h-2zM103 34h1v1h-1zM105 34h3v1h-3zM18 35h1v1h-1zM20 35h1v1h-1zM22 35h1v1h-1zM24 35h2v1h-2zM100 35h3v1h-3zM104 35h1v1h-1zM106 35h2v1h-2zM18 36h2v1h-2zM21 36h1v1h-1zM23 36h2v1h-2zM101 36h3v1h-3zM105 36h1v1h-1zM107 36h1v1h-1zM18 37h1v1h-1zM20 37h1v1h-1zM22 37h3v1h-3zM101 37h2v1h-2zM104 37h1v1h-1zM106 37h2v1h-2zM18 38h2v1h-2zM21 38h1v1h-1zM23 38h2v1h-2zM101 38h3v1h-3zM105 38h1v1h-1zM107 38h1v1h-1zM17 39h2v1h-2zM20 39h1v1h-1zM22 39h3v1h-3zM101 39h2v1h-2zM104 39h1v1h-1zM106 39h3v1h-3zM17 40h1v1h-1zM19 40h1v1h-1zM21 40h1v1h-1zM24 40h1v1h-1zM101 40h1v1h-1zM105 40h1v1h-1zM107 40h2v1h-2zM17 41h2v1h-2zM20 41h1v1h-1zM22 41h1v1h-1zM24 41h1v1h-1zM101 41h1v1h-1zM103 41h2v1h-2zM106 41h1v1h-1zM108 41h1v1h-1zM17 42h1v1h-1zM19 42h1v1h-1zM21 42h3v1h-3zM102 42h2v1h-2zM105 42h1v1h-1zM107 42h2v1h-2zM17 43h2v1h-2zM20 43h1v1h-1zM22 43h2v1h-2zM102 43h3v1h-3zM106 43h1v1h-1zM108 43h1v1h-1zM16 44h2v1h-2zM19 44h1v1h-1zM21 44h3v1h-3zM102 44h2v1h-2zM105 44h1v1h-1zM107 44h3v1h-3zM16 45h3v1h-3zM20 45h1v1h-1zM22 45h2v1h-2zM102 45h3v1h-3zM106 45h1v1h-1zM108 45h2v1h-2zM16 46h2v1h-2zM19 46h1v1h-1zM21 46h3v1h-3zM102 46h2v1h-2zM105 46h1v1h-1zM107 46h1v1h-1zM109 46h1v1h-1zM16 47h1v1h-1zM18 47h1v1h-1zM20 47h1v1h-1zM22 47h2v1h-2zM102 47h3v1h-3zM106 47h1v1h-1zM108 47h2v1h-2zM16 48h2v1h-2zM19 48h1v1h-1zM21 48h3v1h-3zM102 48h4v1h-4zM107 48h1v1h-1zM109 48h1v1h-1zM16 49h1v1h-1zM18 49h1v1h-1zM20 49h3v1h-3zM103 49h2v1h-2zM106 49h1v1h-1zM108 49h2v1h-2zM16 50h2v1h-2zM19 50h1v1h-1zM21 50h2v1h-2zM103 50h3v1h-3zM107 50h1v1h-1zM109 50h1v1h-1zM15 51h2v1h-2zM18 51h1v1h-1zM20 51h3v1h-3zM103 51h2v1h-2zM106 51h1v1h-1zM108 51h3v1h-3zM15 52h3v1h-3zM19 52h1v1h-1zM21 52h2v1h-2zM103 52h3v1h-3zM107 52h1v1h-1zM109 52h2v1h-2zM15 53h2v1h-2zM18 53h1v1h-1zM20 53h3v1h-3zM103 53h2v1h-2zM106 53h1v1h-1zM108 53h1v1h-1zM110 53h1v1h-1zM15 54h1v1h-1zM17 54h1v1h-1zM19 54h1v1h-1zM21 54h2v1h-2zM103 54h3v1h-3zM107 54h1v1h-1zM109 54h2v1h-2zM15 55h2v1h-2zM18 55h1v1h-1zM20 55h3v1h-3zM103 55h4v1h-4zM108 55h1v1h-1zM110 55h1v1h-1zM15 56h1v1h-1zM17 56h1v1h-1zM19 56h1v1h-1zM21 56h2v1h-2zM103 56h2v1h-2zM107 56h1v1h-1zM109 56h2v1h-2zM15 57h2v1h-2zM18 57h1v1h-1zM106 57h1v1h-1zM108 57h1v1h-1zM110 57h1v1h-1zM14 58h2v1h-2zM17 58h1v1h-1zM19 58h3v1h-3zM104 58h2v1h-2zM107 58h1v1h-1zM109 58h3v1h-3zM14 59h3v1h-3zM18 59h1v1h-1zM20 59h2v1h-2zM104 59h3v1h-3zM108 59h1v1h-1zM110 59h2v1h-2zM14 60h2v1h-2zM17 60h1v1h-1zM19 60h3v1h-3zM104 60h2v1h-2zM107 60h1v1h-1zM109 60h1v1h-1zM111 60h1v1h-1zM14 61h1v1h-1zM16 61h1v1h-1zM18 61h1v1h-1zM20 61h2v1h-2zM104 61h3v1h-3zM108 61h1v1h-1zM110 61h2v1h-2zM14 62h2v1h-2zM17 62h1v1h-1zM19 62h3v1h-3zM104 62h2v1h-2zM107 62h1v1h-1zM109 62h1v1h-1zM111 62h1v1h-1zM14 63h1v1h-1zM16 63h1v1h-1zM18 63h4v1h-4zM104 63h3v1h-3zM108 63h1v1h-1zM110 63h2v1h-2zM14 64h2v1h-2zM17 64h1v1h-1zM19 64h3v1h-3zM104 64h4v1h-4zM109 64h1v1h-1zM111 64h1v1h-1zM14 65h1v1h-1zM16 65h1v1h-1zM18 65h4v1h-4zM104 65h3v1h-3zM108 65h1v1h-1zM110 65h2v1h-2zM13 66h3v1h-3zM17 66h1v1h-1zM19 66h3v1h-3zM104 66h4v1h-4zM109 66h1v1h-1zM111 66h2v1h-2zM13 67h2v1h-2zM16 67h1v1h-1zM18 67h3v1h-3zM105 67h2v1h-2zM108 67h1v1h-1zM110 67h3v1h-3zM13 68h3v1h-3zM17 68h1v1h-1zM19 68h2v1h-2zM105 68h3v1h-3zM109 68h1v1h-1zM111 68h2v1h-2zM13 69h2v1h-2zM16 69h1v1h-1zM18 69h3v1h-3zM105 69h2v1h-2zM108 69h1v1h-1zM110 69h1v1h-1zM112 69h1v1h-1zM13 70h1v1h-1zM15 70h1v1h-1zM17 70h1v1h-1zM19 70h2v1h-2zM105 70h3v1h-3zM109 70h1v1h-1zM111 70h2v1h-2zM13 71h2v1h-2zM16 71h1v1h-1zM18 71h3v1h-3zM105 71h2v1h-2zM108 71h1v1h-1zM110 71h1v1h-1zM112 71h1v1h-1zM13 72h1v1h-1zM15 72h1v1h-1zM17 72h4v1h-4zM105 72h3v1h-3zM109 72h1v1h-1zM111 72h2v1h-2zM13 73h2v1h-2zM16 73h1v1h-1zM18 73h3v1h-3zM105 73h4v1h-4zM110 73h1v1h-1zM112 73h1v1h-1zM13 74h1v1h-1zM15 74h1v1h-1zM17 74h4v1h-4zM105 74h3v1h-3zM109 74h1v1h-1zM111 74h2v1h-2zM13 75h2v1h-2zM16 75h1v1h-1zM18 75h3v1h-3zM105 75h4v1h-4zM110 75h1v1h-1zM112 75h1v1h-1zM12 76h2v1h-2zM15 76h1v1h-1zM17 76h4v1h-4zM105 76h3v1h-3zM109 76h1v1h-1zM111 76h3v1h-3zM12 77h3v1h-3zM16 77h1v1h-1zM20 77h1v1h-1zM105 77h1v1h-1zM108 77h1v1h-1zM110 77h1v1h-1zM112 77h2v1h-2zM12 78h2v1h-2zM15 78h1v1h-1zM17 78h3v1h-3zM106 78h2v1h-2zM109 78h1v1h-1zM111 78h3v1h-3zM12 79h1v1h-1zM14 79h1v1h-1zM16 79h1v1h-1zM18 79h2v1h-2zM106 79h3v1h-3zM110 79h1v1h-1zM112 79h2v1h-2zM12 80h2v1h-2zM15 80h1v1h-1zM17 80h3v1h-3zM106 80h2v1h-2zM109 80h1v1h-1zM111 80h1v1h-1zM113 80h1v1h-1zM12 81h1v1h-1zM14 81h1v1h-1zM16 81h1v1h-1zM18 81h2v1h-2zM106 81h3v1h-3zM110 81h1v1h-1zM112 81h2v1h-2zM12 82h2v1h-2zM15 82h1v1h-1zM17 82h3v1h-3zM106 82h2v1h-2zM109 82h1v1h-1zM111 82h1v1h-1zM113 82h1v1h-1zM12 83h1v1h-1zM14 83h1v1h-1zM16 83h4v1h-4zM106 83h3v1h-3zM110 83h1v1h-1zM112 83h2v1h-2zM12 84h2v1h-2zM15 84h1v1h-1zM17 84h3v1h-3zM106 84h4v1h-4zM111 84h1v1h-1zM113 84h1v1h-1zM12 85h1v1h-1zM14 85h1v1h-1zM16 85h4v1h-4zM106 85h3v1h-3zM110 85h1v1h-1zM112 85h2v1h-2zM12 86h2v1h-2zM15 86h1v1h-1zM17 86h3v1h-3zM106 86h4v1h-4zM111 86h1v1h-1zM113 86h1v1h-1zM11 87h2v1h-2zM14 87h1v1h-1zM16 87h4v1h-4zM106 87h3v1h-3zM110 87h1v1h-1zM112 87h3v1h-3zM11 88h3v1h-3zM15 88h1v1h-1zM17 88h3v1h-3zM106 88h4v1h-4zM111 88h1v1h-1zM113 88h2v1h-2zM11 89h2v1h-2zM14 89h1v1h-1zM16 89h4v1h-4zM106 89h3v1h-3zM110 89h1v1h-1zM112 89h3v1h-3zM11 90h3v1h-3zM15 90h1v1h-1zM17 90h3v1h-3zM106 90h4v1h-4zM111 90h1v1h-1zM113 90h2v1h-2zM11 91h2v1h-2zM14 91h1v1h-1zM16 91h4v1h-4zM106 91h3v1h-3zM110 91h1v1h-1zM112 91h1v1h-1zM114 91h1v1h-1zM11 92h1v1h-1zM13 92h1v1h-1zM15 92h1v1h-1zM17 92h2v1h-2zM107 92h3v1h-3zM111 92h1v1h-1zM113 92h2v1h-2zM11 93h8v1h-8zM107 93h8v1h-8zM12 94h7v1h-7zM107 94h7v1h-7zM13 95h7v1h-7zM106 95h7v1h-7zM17 96h1v1h-1zM108 96h2v1h-2zM17 97h1v1h-1zM108 97h1v1h-1z"/>
    <path style="fill:var(--st-truss2,#353a46)" d="M93 3h1v1h-1zM32 4h1v1h-1zM94 4h1v1h-1zM31 5h1v1h-1zM35 5h1v1h-1zM91 5h1v1h-1zM93 5h1v1h-1zM95 5h1v1h-1zM30 6h1v1h-1zM34 6h1v1h-1zM92 6h1v1h-1zM94 6h1v1h-1zM96 6h1v1h-1zM29 7h1v1h-1zM31 7h1v1h-1zM93 7h1v1h-1zM95 7h1v1h-1zM97 7h1v1h-1zM28 8h1v1h-1zM30 8h1v1h-1zM94 8h1v1h-1zM96 8h1v1h-1zM27 9h1v1h-1zM29 9h1v1h-1zM95 9h1v1h-1zM97 9h1v1h-1zM28 10h1v1h-1zM96 10h1v1h-1zM98 10h1v1h-1zM27 11h1v1h-1zM29 11h1v1h-1zM95 11h1v1h-1zM97 11h1v1h-1zM99 11h1v1h-1zM26 12h1v1h-1zM28 12h1v1h-1zM96 12h1v1h-1zM98 12h1v1h-1zM25 13h1v1h-1zM27 13h1v1h-1zM97 13h1v1h-1zM99 13h1v1h-1zM26 14h1v1h-1zM28 14h1v1h-1zM98 14h1v1h-1zM100 14h1v1h-1zM25 15h1v1h-1zM27 15h1v1h-1zM97 15h1v1h-1zM99 15h1v1h-1zM24 16h1v1h-1zM26 16h1v1h-1zM98 16h1v1h-1zM100 16h1v1h-1zM25 17h1v1h-1zM27 17h1v1h-1zM99 17h1v1h-1zM101 17h1v1h-1zM24 18h1v1h-1zM26 18h1v1h-1zM98 18h1v1h-1zM100 18h1v1h-1zM23 19h1v1h-1zM25 19h1v1h-1zM27 19h1v1h-1zM99 19h1v1h-1zM101 19h1v1h-1zM24 20h1v1h-1zM26 20h1v1h-1zM100 20h1v1h-1zM102 20h1v1h-1zM23 21h1v1h-1zM25 21h1v1h-1zM99 21h1v1h-1zM101 21h1v1h-1zM22 22h1v1h-1zM24 22h1v1h-1zM26 22h1v1h-1zM100 22h1v1h-1zM102 22h1v1h-1zM23 23h1v1h-1zM25 23h1v1h-1zM101 23h1v1h-1zM103 23h1v1h-1zM22 24h1v1h-1zM24 24h1v1h-1zM100 24h1v1h-1zM102 24h1v1h-1zM23 25h1v1h-1zM25 25h1v1h-1zM101 25h1v1h-1zM103 25h1v1h-1zM22 26h1v1h-1zM24 26h1v1h-1zM100 26h1v1h-1zM102 26h1v1h-1zM104 26h1v1h-1zM21 27h1v1h-1zM23 27h1v1h-1zM101 27h1v1h-1zM103 27h1v1h-1zM22 28h1v1h-1zM24 28h1v1h-1zM102 28h1v1h-1zM104 28h1v1h-1zM21 29h1v1h-1zM23 29h1v1h-1zM101 29h1v1h-1zM103 29h1v1h-1zM20 30h1v1h-1zM22 30h1v1h-1zM24 30h1v1h-1zM102 30h1v1h-1zM104 30h1v1h-1zM21 31h1v1h-1zM23 31h1v1h-1zM103 31h1v1h-1zM105 31h1v1h-1zM20 32h1v1h-1zM22 32h1v1h-1zM102 32h1v1h-1zM104 32h1v1h-1zM21 33h1v1h-1zM23 33h1v1h-1zM103 33h1v1h-1zM105 33h1v1h-1zM20 34h1v1h-1zM22 34h1v1h-1zM102 34h1v1h-1zM104 34h1v1h-1zM19 35h1v1h-1zM21 35h1v1h-1zM23 35h1v1h-1zM103 35h1v1h-1zM105 35h1v1h-1zM20 36h1v1h-1zM22 36h1v1h-1zM104 36h1v1h-1zM106 36h1v1h-1zM19 37h1v1h-1zM21 37h1v1h-1zM103 37h1v1h-1zM105 37h1v1h-1zM20 38h1v1h-1zM22 38h1v1h-1zM104 38h1v1h-1zM106 38h1v1h-1zM19 39h1v1h-1zM21 39h1v1h-1zM103 39h1v1h-1zM105 39h1v1h-1zM18 40h1v1h-1zM20 40h1v1h-1zM104 40h1v1h-1zM106 40h1v1h-1zM19 41h1v1h-1zM21 41h1v1h-1zM105 41h1v1h-1zM107 41h1v1h-1zM18 42h1v1h-1zM20 42h1v1h-1zM104 42h1v1h-1zM106 42h1v1h-1zM19 43h1v1h-1zM21 43h1v1h-1zM105 43h1v1h-1zM107 43h1v1h-1zM18 44h1v1h-1zM20 44h1v1h-1zM104 44h1v1h-1zM106 44h1v1h-1zM19 45h1v1h-1zM21 45h1v1h-1zM105 45h1v1h-1zM107 45h1v1h-1zM18 46h1v1h-1zM20 46h1v1h-1zM104 46h1v1h-1zM106 46h1v1h-1zM108 46h1v1h-1zM17 47h1v1h-1zM19 47h1v1h-1zM21 47h1v1h-1zM105 47h1v1h-1zM107 47h1v1h-1zM18 48h1v1h-1zM20 48h1v1h-1zM106 48h1v1h-1zM108 48h1v1h-1zM17 49h1v1h-1zM19 49h1v1h-1zM105 49h1v1h-1zM107 49h1v1h-1zM18 50h1v1h-1zM20 50h1v1h-1zM106 50h1v1h-1zM108 50h1v1h-1zM17 51h1v1h-1zM19 51h1v1h-1zM105 51h1v1h-1zM107 51h1v1h-1zM18 52h1v1h-1zM20 52h1v1h-1zM106 52h1v1h-1zM108 52h1v1h-1zM17 53h1v1h-1zM19 53h1v1h-1zM105 53h1v1h-1zM107 53h1v1h-1zM109 53h1v1h-1zM16 54h1v1h-1zM18 54h1v1h-1zM20 54h1v1h-1zM106 54h1v1h-1zM108 54h1v1h-1zM17 55h1v1h-1zM19 55h1v1h-1zM107 55h1v1h-1zM109 55h1v1h-1zM16 56h1v1h-1zM18 56h1v1h-1zM106 56h1v1h-1zM108 56h1v1h-1zM17 57h1v1h-1zM19 57h1v1h-1zM107 57h1v1h-1zM109 57h1v1h-1zM16 58h1v1h-1zM18 58h1v1h-1zM106 58h1v1h-1zM108 58h1v1h-1zM17 59h1v1h-1zM19 59h1v1h-1zM107 59h1v1h-1zM109 59h1v1h-1zM16 60h1v1h-1zM18 60h1v1h-1zM106 60h1v1h-1zM108 60h1v1h-1zM110 60h1v1h-1zM15 61h1v1h-1zM17 61h1v1h-1zM19 61h1v1h-1zM107 61h1v1h-1zM109 61h1v1h-1zM16 62h1v1h-1zM18 62h1v1h-1zM106 62h1v1h-1zM108 62h1v1h-1zM110 62h1v1h-1zM15 63h1v1h-1zM17 63h1v1h-1zM107 63h1v1h-1zM109 63h1v1h-1zM16 64h1v1h-1zM18 64h1v1h-1zM108 64h1v1h-1zM110 64h1v1h-1zM15 65h1v1h-1zM17 65h1v1h-1zM107 65h1v1h-1zM109 65h1v1h-1zM16 66h1v1h-1zM18 66h1v1h-1zM108 66h1v1h-1zM110 66h1v1h-1zM15 67h1v1h-1zM17 67h1v1h-1zM107 67h1v1h-1zM109 67h1v1h-1zM16 68h1v1h-1zM18 68h1v1h-1zM108 68h1v1h-1zM110 68h1v1h-1zM15 69h1v1h-1zM17 69h1v1h-1zM107 69h1v1h-1zM109 69h1v1h-1zM111 69h1v1h-1zM14 70h1v1h-1zM16 70h1v1h-1zM18 70h1v1h-1zM108 70h1v1h-1zM110 70h1v1h-1zM15 71h1v1h-1zM17 71h1v1h-1zM107 71h1v1h-1zM109 71h1v1h-1zM111 71h1v1h-1zM14 72h1v1h-1zM16 72h1v1h-1zM108 72h1v1h-1zM110 72h1v1h-1zM15 73h1v1h-1zM17 73h1v1h-1zM109 73h1v1h-1zM111 73h1v1h-1zM14 74h1v1h-1zM16 74h1v1h-1zM108 74h1v1h-1zM110 74h1v1h-1zM15 75h1v1h-1zM17 75h1v1h-1zM109 75h1v1h-1zM111 75h1v1h-1zM14 76h1v1h-1zM16 76h1v1h-1zM108 76h1v1h-1zM110 76h1v1h-1zM15 77h1v1h-1zM17 77h1v1h-1zM109 77h1v1h-1zM111 77h1v1h-1zM14 78h1v1h-1zM16 78h1v1h-1zM108 78h1v1h-1zM110 78h1v1h-1zM13 79h1v1h-1zM15 79h1v1h-1zM17 79h1v1h-1zM109 79h1v1h-1zM111 79h1v1h-1zM14 80h1v1h-1zM16 80h1v1h-1zM108 80h1v1h-1zM110 80h1v1h-1zM112 80h1v1h-1zM13 81h1v1h-1zM15 81h1v1h-1zM17 81h1v1h-1zM109 81h1v1h-1zM111 81h1v1h-1zM14 82h1v1h-1zM16 82h1v1h-1zM108 82h1v1h-1zM110 82h1v1h-1zM112 82h1v1h-1zM13 83h1v1h-1zM15 83h1v1h-1zM109 83h1v1h-1zM111 83h1v1h-1zM14 84h1v1h-1zM16 84h1v1h-1zM110 84h1v1h-1zM112 84h1v1h-1zM13 85h1v1h-1zM15 85h1v1h-1zM109 85h1v1h-1zM111 85h1v1h-1zM14 86h1v1h-1zM16 86h1v1h-1zM110 86h1v1h-1zM112 86h1v1h-1zM13 87h1v1h-1zM15 87h1v1h-1zM109 87h1v1h-1zM111 87h1v1h-1zM14 88h1v1h-1zM16 88h1v1h-1zM110 88h1v1h-1zM112 88h1v1h-1zM13 89h1v1h-1zM15 89h1v1h-1zM109 89h1v1h-1zM111 89h1v1h-1zM14 90h1v1h-1zM16 90h1v1h-1zM110 90h1v1h-1zM112 90h1v1h-1zM13 91h1v1h-1zM15 91h1v1h-1zM109 91h1v1h-1zM111 91h1v1h-1zM113 91h1v1h-1zM12 92h1v1h-1zM14 92h1v1h-1zM16 92h1v1h-1zM110 92h1v1h-1zM112 92h1v1h-1zM16 96h1v1h-1z"/>
    <path style="fill:var(--st-roof,#4a505d)" d="M48 4h30v1h-30zM41 5h44v1h-44zM38 6h50v1h-50zM36 7h16v1h-16zM74 7h16v1h-16zM35 8h9v1h-9zM82 8h9v1h-9zM23 9h2v1h-2zM34 9h6v1h-6zM86 9h6v1h-6zM23 10h2v1h-2zM33 10h5v1h-5zM88 10h5v1h-5zM23 11h2v1h-2zM32 11h4v1h-4zM90 11h4v1h-4zM22 12h2v1h-2zM32 12h2v1h-2zM92 12h2v1h-2zM22 13h2v1h-2zM31 13h5v1h-5zM93 13h2v1h-2zM22 14h2v1h-2zM31 14h8v1h-8zM94 14h1v1h-1zM22 15h1v1h-1zM30 15h8v1h-8zM95 15h1v1h-1zM21 16h2v1h-2zM30 16h8v1h-8zM21 17h2v1h-2zM30 17h8v1h-8zM21 18h1v1h-1zM30 18h8v1h-8zM20 19h2v1h-2zM29 19h9v1h-9zM20 20h2v1h-2zM29 20h9v1h-9zM104 20h1v1h-1zM20 21h1v1h-1zM28 21h9v1h-9zM20 22h1v1h-1zM28 22h9v1h-9zM19 23h2v1h-2zM28 23h9v1h-9zM105 23h1v1h-1zM19 24h2v1h-2zM28 24h9v1h-9zM105 24h1v1h-1zM19 25h1v1h-1zM27 25h10v1h-10zM106 25h1v1h-1zM18 26h2v1h-2zM27 26h9v1h-9zM106 26h1v1h-1zM18 27h2v1h-2zM27 27h9v1h-9zM106 27h1v1h-1zM18 28h2v1h-2zM27 28h9v1h-9zM106 28h2v1h-2zM17 29h2v1h-2zM27 29h9v1h-9zM107 29h1v1h-1zM17 30h2v1h-2zM26 30h10v1h-10zM107 30h1v1h-1zM17 31h2v1h-2zM26 31h10v1h-10zM107 31h2v1h-2zM17 32h2v1h-2zM26 32h9v1h-9zM107 32h2v1h-2zM16 33h3v1h-3zM26 33h9v1h-9zM107 33h2v1h-2zM16 34h2v1h-2zM26 34h9v1h-9zM108 34h2v1h-2zM16 35h2v1h-2zM26 35h9v1h-9zM108 35h2v1h-2zM15 36h3v1h-3zM25 36h10v1h-10zM108 36h2v1h-2zM15 37h3v1h-3zM25 37h10v1h-10zM108 37h3v1h-3zM16 38h2v1h-2zM25 38h9v1h-9zM108 38h3v1h-3zM16 39h1v1h-1zM25 39h9v1h-9zM109 39h2v1h-2zM14 40h1v1h-1zM16 40h1v1h-1zM25 40h9v1h-9zM109 40h2v1h-2zM25 41h9v1h-9zM109 41h2v1h-2zM24 42h10v1h-10zM109 42h2v1h-2zM13 43h1v1h-1zM24 43h10v1h-10zM109 43h2v1h-2zM24 44h9v1h-9zM110 44h1v1h-1zM24 45h9v1h-9zM110 45h1v1h-1zM12 46h1v1h-1zM15 46h1v1h-1zM24 46h9v1h-9zM110 46h1v1h-1zM12 47h4v1h-4zM24 47h9v1h-9zM110 47h1v1h-1zM13 48h3v1h-3zM24 48h9v1h-9zM110 48h1v1h-1zM13 49h3v1h-3zM23 49h10v1h-10zM110 49h1v1h-1zM11 50h1v1h-1zM14 50h2v1h-2zM23 50h9v1h-9zM110 50h1v1h-1zM112 50h1v1h-1zM11 51h1v1h-1zM14 51h1v1h-1zM23 51h9v1h-9zM112 51h1v1h-1zM14 52h1v1h-1zM23 52h9v1h-9zM112 52h1v1h-1zM10 53h2v1h-2zM23 53h9v1h-9zM111 53h2v1h-2zM10 54h1v1h-1zM12 54h3v1h-3zM23 54h9v1h-9zM111 54h2v1h-2zM10 55h1v1h-1zM12 55h3v1h-3zM23 55h9v1h-9zM111 55h1v1h-1zM9 56h2v1h-2zM13 56h2v1h-2zM23 56h8v1h-8zM111 56h1v1h-1zM113 56h1v1h-1zM9 57h2v1h-2zM13 57h2v1h-2zM22 57h9v1h-9zM111 57h1v1h-1zM113 57h1v1h-1zM9 58h1v1h-1zM13 58h1v1h-1zM22 58h9v1h-9zM113 58h1v1h-1zM9 59h1v1h-1zM11 59h2v1h-2zM22 59h9v1h-9zM112 59h2v1h-2zM8 60h2v1h-2zM11 60h3v1h-3zM22 60h9v1h-9zM112 60h1v1h-1zM8 61h2v1h-2zM12 61h2v1h-2zM22 61h9v1h-9zM112 61h1v1h-1zM114 61h1v1h-1zM8 62h2v1h-2zM12 62h2v1h-2zM22 62h8v1h-8zM112 62h1v1h-1zM114 62h1v1h-1zM7 63h4v1h-4zM13 63h1v1h-1zM22 63h8v1h-8zM112 63h2v1h-2zM7 64h5v1h-5zM22 64h8v1h-8zM113 64h1v1h-1zM115 64h1v1h-1zM7 65h6v1h-6zM22 65h8v1h-8zM113 65h1v1h-1zM115 65h1v1h-1zM7 66h6v1h-6zM22 66h8v1h-8zM113 66h1v1h-1zM115 66h1v1h-1zM6 67h4v1h-4zM11 67h2v1h-2zM21 67h8v1h-8zM115 67h1v1h-1zM6 68h5v1h-5zM12 68h1v1h-1zM21 68h8v1h-8zM114 68h2v1h-2zM6 69h5v1h-5zM21 69h8v1h-8zM114 69h2v1h-2zM5 70h7v1h-7zM21 70h8v1h-8zM5 71h7v1h-7zM21 71h8v1h-8zM113 71h2v1h-2zM5 72h6v1h-6zM12 72h1v1h-1zM21 72h8v1h-8zM114 72h1v1h-1zM4 73h8v1h-8zM21 73h7v1h-7zM114 73h1v1h-1zM4 74h8v1h-8zM21 74h6v1h-6zM113 74h1v1h-1zM4 75h9v1h-9zM21 75h2v1h-2zM4 76h8v1h-8zM3 77h9v1h-9zM3 78h8v1h-8zM20 78h2v1h-2zM104 78h2v1h-2zM3 79h4v1h-4zM20 79h3v1h-3zM103 79h3v1h-3zM2 80h1v1h-1zM20 80h4v1h-4zM102 80h4v1h-4zM20 81h5v1h-5zM101 81h5v1h-5zM20 82h6v1h-6zM100 82h6v1h-6zM20 83h8v1h-8zM98 83h8v1h-8zM20 84h10v1h-10zM96 84h10v1h-10zM20 85h12v1h-12zM94 85h12v1h-12zM20 86h14v1h-14zM92 86h14v1h-14zM21 87h17v1h-17zM88 87h17v1h-17zM22 88h22v1h-22zM82 88h21v1h-21zM105 88h1v1h-1zM20 89h1v1h-1zM22 89h81v1h-81zM104 89h1v1h-1zM20 90h1v1h-1zM22 90h80v1h-80zM104 90h2v1h-2zM21 91h5v1h-5zM27 91h74v1h-74zM103 91h1v1h-1zM22 92h4v1h-4zM27 92h3v1h-3zM31 92h67v1h-67zM99 92h1v1h-1zM102 92h2v1h-2zM23 93h2v1h-2zM27 93h3v1h-3zM31 93h4v1h-4zM36 93h58v1h-58zM95 93h2v1h-2zM99 93h1v1h-1zM102 93h1v1h-1zM28 94h1v1h-1zM31 94h4v1h-4zM36 94h5v1h-5zM47 94h32v1h-32zM84 94h5v1h-5zM90 94h3v1h-3zM95 94h1v1h-1zM98 94h1v1h-1zM28 95h1v1h-1zM32 95h2v1h-2zM36 95h4v1h-4zM48 95h1v1h-1zM61 95h2v1h-2zM75 95h2v1h-2zM83 95h5v1h-5zM90 95h2v1h-2zM94 95h2v1h-2zM32 96h2v1h-2zM36 96h4v1h-4zM47 96h2v1h-2zM59 96h4v1h-4zM73 96h4v1h-4zM81 96h6v1h-6zM90 96h1v1h-1zM94 96h1v1h-1zM97 96h1v1h-1zM32 97h1v1h-1zM37 97h2v1h-2zM46 97h3v1h-3zM57 97h6v1h-6zM71 97h6v1h-6zM80 97h6v1h-6zM89 97h1v1h-1zM37 98h1v1h-1zM45 98h5v1h-5zM55 98h8v1h-8zM68 98h8v1h-8zM79 98h6v1h-6zM44 99h6v1h-6zM53 99h10v1h-10zM66 99h10v1h-10zM78 99h6v1h-6zM47 100h16v1h-16zM64 100h15v1h-15z"/>
    <path style="fill:var(--st-flood,#353a46)" d="M33 7h1v1h-1zM92 7h1v1h-1zM33 8h2v1h-2zM91 8h2v1h-2zM31 11h1v1h-1zM94 11h1v1h-1zM30 12h2v1h-2zM94 12h2v1h-2zM28 18h2v1h-2zM96 18h2v1h-2zM25 27h2v1h-2zM99 27h2v1h-2zM25 28h2v1h-2zM99 28h2v1h-2zM22 40h2v1h-2zM102 40h2v1h-2zM23 41h1v1h-1zM102 41h1v1h-1zM20 56h1v1h-1zM105 56h1v1h-1zM20 57h2v1h-2zM104 57h2v1h-2zM18 77h2v1h-2zM106 77h2v1h-2z"/>
    <path style="fill:var(--st-seat2,#212633)" d="M52 7h22v1h-22zM44 8h38v1h-38zM40 9h6v1h-6zM80 9h6v1h-6zM38 10h4v1h-4zM50 10h26v1h-26zM84 10h4v1h-4zM36 11h3v1h-3zM43 11h40v1h-40zM87 11h3v1h-3zM34 12h3v1h-3zM40 12h5v1h-5zM81 12h5v1h-5zM89 12h3v1h-3zM38 13h3v1h-3zM50 13h26v1h-26zM85 13h3v1h-3zM91 13h2v1h-2zM43 14h40v1h-40zM87 14h3v1h-3zM92 14h2v1h-2zM40 15h5v1h-5zM81 15h5v1h-5zM89 15h2v1h-2zM93 15h2v1h-2zM39 16h3v1h-3zM50 16h26v1h-26zM84 16h4v1h-4zM90 16h2v1h-2zM94 16h2v1h-2zM43 17h40v1h-40zM87 17h2v1h-2zM91 17h2v1h-2zM95 17h1v1h-1zM41 18h5v1h-5zM80 18h5v1h-5zM88 18h2v1h-2zM92 18h2v1h-2zM39 19h3v1h-3zM50 19h26v1h-26zM84 19h3v1h-3zM89 19h2v1h-2zM93 19h2v1h-2zM39 20h2v1h-2zM44 20h38v1h-38zM85 20h3v1h-3zM90 20h2v1h-2zM94 20h2v1h-2zM38 21h1v1h-1zM42 21h4v1h-4zM80 21h4v1h-4zM87 21h2v1h-2zM91 21h2v1h-2zM94 21h2v1h-2zM41 22h3v1h-3zM51 22h24v1h-24zM82 22h3v1h-3zM88 22h2v1h-2zM91 22h2v1h-2zM95 22h2v1h-2zM40 23h2v1h-2zM45 23h36v1h-36zM84 23h2v1h-2zM88 23h2v1h-2zM92 23h2v1h-2zM95 23h2v1h-2zM39 24h2v1h-2zM43 24h5v1h-5zM78 24h5v1h-5zM85 24h2v1h-2zM89 24h2v1h-2zM92 24h2v1h-2zM96 24h2v1h-2zM38 25h2v1h-2zM42 25h3v1h-3zM81 25h3v1h-3zM86 25h2v1h-2zM89 25h2v1h-2zM93 25h2v1h-2zM96 25h2v1h-2zM38 26h2v1h-2zM41 26h3v1h-3zM82 26h3v1h-3zM86 26h2v1h-2zM90 26h2v1h-2zM93 26h2v1h-2zM97 26h1v1h-1zM37 27h2v1h-2zM41 27h2v1h-2zM83 27h2v1h-2zM87 27h2v1h-2zM90 27h2v1h-2zM94 27h1v1h-1zM97 27h2v1h-2zM37 28h2v1h-2zM40 28h2v1h-2zM84 28h2v1h-2zM87 28h2v1h-2zM91 28h1v1h-1zM94 28h1v1h-1zM97 28h2v1h-2zM37 29h1v1h-1zM40 29h2v1h-2zM84 29h2v1h-2zM88 29h1v1h-1zM91 29h1v1h-1zM94 29h2v1h-2zM97 29h2v1h-2zM37 30h1v1h-1zM40 30h1v1h-1zM85 30h1v1h-1zM88 30h1v1h-1zM91 30h2v1h-2zM94 30h2v1h-2zM98 30h1v1h-1zM37 31h1v1h-1zM40 31h1v1h-1zM85 31h1v1h-1zM88 31h2v1h-2zM91 31h2v1h-2zM95 31h1v1h-1zM98 31h2v1h-2zM37 32h1v1h-1zM39 32h2v1h-2zM85 32h2v1h-2zM88 32h2v1h-2zM91 32h2v1h-2zM95 32h2v1h-2zM98 32h2v1h-2zM36 33h2v1h-2zM39 33h2v1h-2zM85 33h2v1h-2zM88 33h2v1h-2zM92 33h1v1h-1zM95 33h2v1h-2zM98 33h2v1h-2zM36 34h1v1h-1zM39 34h1v1h-1zM86 34h1v1h-1zM89 34h1v1h-1zM92 34h2v1h-2zM95 34h2v1h-2zM99 34h1v1h-1zM36 35h1v1h-1zM39 35h1v1h-1zM86 35h1v1h-1zM89 35h1v1h-1zM92 35h2v1h-2zM95 35h2v1h-2zM99 35h1v1h-1zM36 36h1v1h-1zM39 36h1v1h-1zM86 36h1v1h-1zM89 36h2v1h-2zM92 36h2v1h-2zM96 36h1v1h-1zM99 36h2v1h-2zM36 37h1v1h-1zM38 37h2v1h-2zM86 37h2v1h-2zM89 37h2v1h-2zM92 37h2v1h-2zM96 37h2v1h-2zM99 37h2v1h-2zM36 38h1v1h-1zM38 38h2v1h-2zM86 38h2v1h-2zM89 38h2v1h-2zM93 38h1v1h-1zM96 38h2v1h-2zM100 38h1v1h-1zM35 39h1v1h-1zM38 39h2v1h-2zM86 39h2v1h-2zM90 39h1v1h-1zM93 39h2v1h-2zM96 39h2v1h-2zM100 39h1v1h-1zM35 40h1v1h-1zM38 40h2v1h-2zM86 40h2v1h-2zM90 40h1v1h-1zM93 40h2v1h-2zM96 40h2v1h-2zM100 40h1v1h-1zM35 41h1v1h-1zM38 41h1v1h-1zM87 41h1v1h-1zM90 41h2v1h-2zM93 41h2v1h-2zM97 41h1v1h-1zM100 41h1v1h-1zM35 42h1v1h-1zM38 42h1v1h-1zM87 42h1v1h-1zM90 42h2v1h-2zM93 42h2v1h-2zM97 42h2v1h-2zM101 42h1v1h-1zM35 43h1v1h-1zM37 43h2v1h-2zM87 43h2v1h-2zM90 43h2v1h-2zM94 43h1v1h-1zM97 43h2v1h-2zM101 43h1v1h-1zM35 44h1v1h-1zM37 44h2v1h-2zM87 44h2v1h-2zM90 44h2v1h-2zM94 44h1v1h-1zM97 44h2v1h-2zM101 44h1v1h-1zM34 45h2v1h-2zM37 45h2v1h-2zM87 45h2v1h-2zM90 45h2v1h-2zM94 45h2v1h-2zM97 45h2v1h-2zM101 45h1v1h-1zM34 46h1v1h-1zM37 46h2v1h-2zM87 46h2v1h-2zM91 46h1v1h-1zM94 46h2v1h-2zM98 46h2v1h-2zM101 46h1v1h-1zM34 47h1v1h-1zM37 47h2v1h-2zM87 47h2v1h-2zM91 47h2v1h-2zM94 47h2v1h-2zM98 47h2v1h-2zM34 48h1v1h-1zM37 48h1v1h-1zM88 48h1v1h-1zM91 48h2v1h-2zM94 48h2v1h-2zM98 48h2v1h-2zM34 49h1v1h-1zM37 49h1v1h-1zM88 49h1v1h-1zM91 49h2v1h-2zM95 49h1v1h-1zM98 49h2v1h-2zM102 49h1v1h-1zM34 50h1v1h-1zM36 50h2v1h-2zM88 50h2v1h-2zM91 50h2v1h-2zM95 50h2v1h-2zM98 50h2v1h-2zM102 50h1v1h-1zM33 51h2v1h-2zM36 51h2v1h-2zM88 51h2v1h-2zM91 51h2v1h-2zM95 51h2v1h-2zM99 51h2v1h-2zM102 51h1v1h-1zM33 52h1v1h-1zM36 52h2v1h-2zM88 52h2v1h-2zM92 52h1v1h-1zM95 52h2v1h-2zM99 52h2v1h-2zM33 53h1v1h-1zM36 53h2v1h-2zM88 53h2v1h-2zM92 53h2v1h-2zM95 53h2v1h-2zM99 53h2v1h-2zM33 54h1v1h-1zM36 54h2v1h-2zM88 54h2v1h-2zM92 54h2v1h-2zM96 54h1v1h-1zM99 54h2v1h-2zM33 55h1v1h-1zM36 55h1v1h-1zM89 55h1v1h-1zM92 55h2v1h-2zM96 55h2v1h-2zM99 55h2v1h-2zM32 56h2v1h-2zM36 56h1v1h-1zM89 56h1v1h-1zM92 56h2v1h-2zM96 56h2v1h-2zM100 56h1v1h-1zM32 57h2v1h-2zM35 57h2v1h-2zM89 57h2v1h-2zM92 57h2v1h-2zM96 57h2v1h-2zM100 57h2v1h-2zM103 57h1v1h-1zM32 58h1v1h-1zM35 58h2v1h-2zM89 58h2v1h-2zM93 58h1v1h-1zM96 58h2v1h-2zM100 58h2v1h-2zM32 59h1v1h-1zM35 59h2v1h-2zM89 59h2v1h-2zM93 59h1v1h-1zM96 59h2v1h-2zM100 59h2v1h-2zM32 60h1v1h-1zM35 60h2v1h-2zM89 60h2v1h-2zM93 60h2v1h-2zM96 60h2v1h-2zM100 60h2v1h-2zM32 61h1v1h-1zM35 61h2v1h-2zM89 61h2v1h-2zM93 61h2v1h-2zM97 61h1v1h-1zM100 61h2v1h-2zM31 62h2v1h-2zM35 62h2v1h-2zM89 62h2v1h-2zM93 62h2v1h-2zM97 62h1v1h-1zM100 62h2v1h-2zM31 63h2v1h-2zM35 63h1v1h-1zM90 63h1v1h-1zM93 63h2v1h-2zM97 63h2v1h-2zM100 63h2v1h-2zM31 64h2v1h-2zM35 64h1v1h-1zM90 64h1v1h-1zM93 64h2v1h-2zM97 64h2v1h-2zM100 64h2v1h-2zM31 65h2v1h-2zM35 65h1v1h-1zM90 65h1v1h-1zM93 65h2v1h-2zM97 65h2v1h-2zM100 65h2v1h-2zM31 66h2v1h-2zM35 66h1v1h-1zM90 66h1v1h-1zM93 66h2v1h-2zM97 66h2v1h-2zM100 66h2v1h-2zM31 67h2v1h-2zM35 67h1v1h-1zM90 67h1v1h-1zM93 67h2v1h-2zM97 67h2v1h-2zM100 67h2v1h-2zM104 67h1v1h-1zM31 68h2v1h-2zM35 68h1v1h-1zM90 68h1v1h-1zM93 68h2v1h-2zM97 68h2v1h-2zM100 68h2v1h-2zM104 68h1v1h-1zM31 69h2v1h-2zM35 69h1v1h-1zM90 69h1v1h-1zM93 69h2v1h-2zM97 69h1v1h-1zM100 69h2v1h-2zM104 69h1v1h-1zM31 70h2v1h-2zM35 70h2v1h-2zM89 70h2v1h-2zM93 70h2v1h-2zM97 70h1v1h-1zM100 70h2v1h-2zM103 70h2v1h-2zM31 71h2v1h-2zM35 71h2v1h-2zM89 71h2v1h-2zM93 71h2v1h-2zM96 71h2v1h-2zM100 71h2v1h-2zM103 71h2v1h-2zM32 72h1v1h-1zM35 72h2v1h-2zM89 72h2v1h-2zM93 72h1v1h-1zM96 72h2v1h-2zM100 72h1v1h-1zM103 72h2v1h-2zM32 73h2v1h-2zM36 73h2v1h-2zM88 73h2v1h-2zM92 73h2v1h-2zM96 73h2v1h-2zM99 73h2v1h-2zM103 73h1v1h-1zM29 74h2v1h-2zM33 74h1v1h-1zM36 74h2v1h-2zM88 74h2v1h-2zM92 74h1v1h-1zM95 74h2v1h-2zM99 74h2v1h-2zM102 74h2v1h-2zM23 75h1v1h-1zM26 75h2v1h-2zM29 75h2v1h-2zM33 75h2v1h-2zM37 75h2v1h-2zM87 75h2v1h-2zM91 75h2v1h-2zM95 75h2v1h-2zM98 75h2v1h-2zM102 75h1v1h-1zM21 76h1v1h-1zM23 76h2v1h-2zM26 76h2v1h-2zM30 76h2v1h-2zM34 76h2v1h-2zM38 76h3v1h-3zM85 76h3v1h-3zM90 76h2v1h-2zM94 76h2v1h-2zM98 76h2v1h-2zM101 76h2v1h-2zM104 76h1v1h-1zM21 77h2v1h-2zM24 77h2v1h-2zM27 77h2v1h-2zM31 77h2v1h-2zM35 77h2v1h-2zM40 77h3v1h-3zM83 77h3v1h-3zM89 77h2v1h-2zM93 77h2v1h-2zM97 77h2v1h-2zM100 77h2v1h-2zM103 77h2v1h-2zM22 78h1v1h-1zM25 78h1v1h-1zM28 78h2v1h-2zM32 78h2v1h-2zM36 78h3v1h-3zM43 78h40v1h-40zM87 78h3v1h-3zM92 78h2v1h-2zM96 78h2v1h-2zM100 78h1v1h-1zM103 78h1v1h-1zM23 79h1v1h-1zM26 79h1v1h-1zM29 79h2v1h-2zM33 79h3v1h-3zM39 79h5v1h-5zM82 79h5v1h-5zM90 79h3v1h-3zM95 79h2v1h-2zM99 79h1v1h-1zM102 79h1v1h-1zM24 80h1v1h-1zM27 80h1v1h-1zM30 80h3v1h-3zM35 80h3v1h-3zM44 80h38v1h-38zM88 80h3v1h-3zM93 80h3v1h-3zM98 80h1v1h-1zM101 80h1v1h-1zM25 81h1v1h-1zM28 81h2v1h-2zM32 81h3v1h-3zM38 81h6v1h-6zM82 81h6v1h-6zM91 81h3v1h-3zM96 81h2v1h-2zM100 81h1v1h-1zM26 82h2v1h-2zM30 82h2v1h-2zM34 82h4v1h-4zM45 82h36v1h-36zM88 82h4v1h-4zM94 82h2v1h-2zM98 82h2v1h-2zM28 83h1v1h-1zM32 83h2v1h-2zM38 83h7v1h-7zM81 83h7v1h-7zM92 83h2v1h-2zM97 83h1v1h-1zM30 84h1v1h-1zM34 84h4v1h-4zM45 84h36v1h-36zM88 84h4v1h-4zM95 84h1v1h-1zM32 85h2v1h-2zM38 85h7v1h-7zM81 85h7v1h-7zM92 85h2v1h-2zM34 86h4v1h-4zM44 86h38v1h-38zM88 86h4v1h-4zM38 87h6v1h-6zM82 87h6v1h-6zM44 88h38v1h-38z"/>
    <path style="fill:var(--st-seat,#262c3a)" d="M46 9h34v1h-34zM42 10h8v1h-8zM76 10h8v1h-8zM39 11h4v1h-4zM83 11h4v1h-4zM37 12h3v1h-3zM45 12h36v1h-36zM86 12h3v1h-3zM36 13h2v1h-2zM41 13h9v1h-9zM76 13h9v1h-9zM88 13h3v1h-3zM40 14h3v1h-3zM83 14h4v1h-4zM90 14h2v1h-2zM39 15h1v1h-1zM86 15h3v1h-3zM91 15h2v1h-2zM88 16h2v1h-2zM92 16h2v1h-2zM89 17h2v1h-2zM93 17h2v1h-2zM46 18h34v1h-34zM90 18h2v1h-2zM94 18h2v1h-2zM42 19h8v1h-8zM76 19h8v1h-8zM91 19h2v1h-2zM95 19h2v1h-2zM41 20h3v1h-3zM82 20h3v1h-3zM92 20h2v1h-2zM96 20h1v1h-1zM39 21h3v1h-3zM46 21h34v1h-34zM84 21h3v1h-3zM93 21h1v1h-1zM96 21h2v1h-2zM38 22h3v1h-3zM44 22h7v1h-7zM75 22h7v1h-7zM85 22h3v1h-3zM93 22h2v1h-2zM97 22h1v1h-1zM38 23h2v1h-2zM42 23h3v1h-3zM81 23h3v1h-3zM86 23h2v1h-2zM94 23h1v1h-1zM97 23h1v1h-1zM38 24h1v1h-1zM41 24h2v1h-2zM48 24h30v1h-30zM83 24h2v1h-2zM87 24h2v1h-2zM94 24h2v1h-2zM40 25h2v1h-2zM45 25h36v1h-36zM84 25h2v1h-2zM88 25h1v1h-1zM95 25h1v1h-1zM98 25h1v1h-1zM40 26h1v1h-1zM44 26h3v1h-3zM79 26h3v1h-3zM85 26h1v1h-1zM88 26h2v1h-2zM95 26h2v1h-2zM98 26h1v1h-1zM39 27h2v1h-2zM43 27h1v1h-1zM82 27h1v1h-1zM85 27h2v1h-2zM89 27h1v1h-1zM95 27h2v1h-2zM39 28h1v1h-1zM42 28h2v1h-2zM82 28h2v1h-2zM86 28h1v1h-1zM89 28h2v1h-2zM95 28h2v1h-2zM38 29h2v1h-2zM42 29h2v1h-2zM82 29h2v1h-2zM86 29h2v1h-2zM89 29h2v1h-2zM96 29h1v1h-1zM38 30h2v1h-2zM41 30h2v1h-2zM83 30h2v1h-2zM86 30h2v1h-2zM89 30h2v1h-2zM96 30h2v1h-2zM99 30h1v1h-1zM38 31h2v1h-2zM41 31h2v1h-2zM83 31h2v1h-2zM86 31h2v1h-2zM90 31h1v1h-1zM96 31h2v1h-2zM38 32h1v1h-1zM41 32h1v1h-1zM84 32h1v1h-1zM87 32h1v1h-1zM90 32h1v1h-1zM97 32h1v1h-1zM38 33h1v1h-1zM41 33h1v1h-1zM84 33h1v1h-1zM87 33h1v1h-1zM90 33h2v1h-2zM97 33h1v1h-1zM37 34h2v1h-2zM40 34h2v1h-2zM84 34h2v1h-2zM87 34h2v1h-2zM90 34h2v1h-2zM97 34h2v1h-2zM37 35h2v1h-2zM40 35h2v1h-2zM84 35h2v1h-2zM87 35h2v1h-2zM90 35h2v1h-2zM97 35h2v1h-2zM37 36h2v1h-2zM40 36h2v1h-2zM84 36h2v1h-2zM87 36h2v1h-2zM91 36h1v1h-1zM97 36h2v1h-2zM37 37h1v1h-1zM40 37h2v1h-2zM84 37h2v1h-2zM88 37h1v1h-1zM91 37h1v1h-1zM98 37h1v1h-1zM37 38h1v1h-1zM40 38h1v1h-1zM85 38h1v1h-1zM88 38h1v1h-1zM91 38h2v1h-2zM98 38h2v1h-2zM36 39h2v1h-2zM40 39h1v1h-1zM85 39h1v1h-1zM88 39h2v1h-2zM91 39h2v1h-2zM98 39h2v1h-2zM36 40h2v1h-2zM40 40h1v1h-1zM85 40h1v1h-1zM88 40h2v1h-2zM91 40h2v1h-2zM98 40h2v1h-2zM36 41h2v1h-2zM39 41h2v1h-2zM85 41h2v1h-2zM88 41h2v1h-2zM92 41h1v1h-1zM98 41h2v1h-2zM36 42h2v1h-2zM39 42h2v1h-2zM85 42h2v1h-2zM88 42h2v1h-2zM92 42h1v1h-1zM99 42h2v1h-2zM36 43h1v1h-1zM39 43h2v1h-2zM85 43h2v1h-2zM89 43h1v1h-1zM92 43h2v1h-2zM99 43h2v1h-2zM36 44h1v1h-1zM39 44h2v1h-2zM85 44h2v1h-2zM89 44h1v1h-1zM92 44h2v1h-2zM99 44h2v1h-2zM36 45h1v1h-1zM39 45h1v1h-1zM86 45h1v1h-1zM89 45h1v1h-1zM92 45h2v1h-2zM99 45h2v1h-2zM35 46h2v1h-2zM39 46h1v1h-1zM86 46h1v1h-1zM89 46h2v1h-2zM92 46h2v1h-2zM100 46h1v1h-1zM35 47h2v1h-2zM39 47h1v1h-1zM86 47h1v1h-1zM89 47h2v1h-2zM93 47h1v1h-1zM100 47h2v1h-2zM35 48h2v1h-2zM38 48h2v1h-2zM86 48h2v1h-2zM89 48h2v1h-2zM93 48h1v1h-1zM100 48h2v1h-2zM35 49h2v1h-2zM38 49h2v1h-2zM86 49h2v1h-2zM89 49h2v1h-2zM93 49h2v1h-2zM100 49h2v1h-2zM35 50h1v1h-1zM38 50h2v1h-2zM86 50h2v1h-2zM90 50h1v1h-1zM93 50h2v1h-2zM100 50h2v1h-2zM35 51h1v1h-1zM38 51h2v1h-2zM86 51h2v1h-2zM90 51h1v1h-1zM93 51h2v1h-2zM101 51h1v1h-1zM34 52h2v1h-2zM38 52h2v1h-2zM86 52h2v1h-2zM90 52h2v1h-2zM93 52h2v1h-2zM101 52h2v1h-2zM34 53h2v1h-2zM38 53h1v1h-1zM87 53h1v1h-1zM90 53h2v1h-2zM94 53h1v1h-1zM101 53h2v1h-2zM34 54h2v1h-2zM38 54h1v1h-1zM87 54h1v1h-1zM90 54h2v1h-2zM94 54h2v1h-2zM101 54h2v1h-2zM34 55h2v1h-2zM37 55h2v1h-2zM87 55h2v1h-2zM90 55h2v1h-2zM94 55h2v1h-2zM101 55h2v1h-2zM34 56h2v1h-2zM37 56h2v1h-2zM87 56h2v1h-2zM90 56h2v1h-2zM94 56h2v1h-2zM101 56h2v1h-2zM34 57h1v1h-1zM37 57h2v1h-2zM87 57h2v1h-2zM91 57h1v1h-1zM94 57h2v1h-2zM102 57h1v1h-1zM33 58h2v1h-2zM37 58h2v1h-2zM87 58h2v1h-2zM91 58h2v1h-2zM94 58h2v1h-2zM102 58h2v1h-2zM33 59h2v1h-2zM37 59h2v1h-2zM87 59h2v1h-2zM91 59h2v1h-2zM94 59h2v1h-2zM102 59h2v1h-2zM33 60h2v1h-2zM37 60h2v1h-2zM87 60h2v1h-2zM91 60h2v1h-2zM95 60h1v1h-1zM102 60h2v1h-2zM33 61h2v1h-2zM37 61h1v1h-1zM88 61h1v1h-1zM91 61h2v1h-2zM95 61h2v1h-2zM102 61h2v1h-2zM33 62h2v1h-2zM37 62h1v1h-1zM88 62h1v1h-1zM91 62h2v1h-2zM95 62h2v1h-2zM102 62h2v1h-2zM33 63h2v1h-2zM36 63h2v1h-2zM88 63h2v1h-2zM91 63h2v1h-2zM95 63h2v1h-2zM102 63h2v1h-2zM33 64h2v1h-2zM36 64h2v1h-2zM88 64h2v1h-2zM91 64h2v1h-2zM95 64h2v1h-2zM102 64h2v1h-2zM33 65h2v1h-2zM36 65h2v1h-2zM88 65h2v1h-2zM91 65h2v1h-2zM95 65h2v1h-2zM102 65h2v1h-2zM33 66h2v1h-2zM36 66h2v1h-2zM88 66h2v1h-2zM91 66h2v1h-2zM95 66h2v1h-2zM102 66h2v1h-2zM33 67h2v1h-2zM36 67h2v1h-2zM88 67h2v1h-2zM91 67h2v1h-2zM95 67h2v1h-2zM102 67h2v1h-2zM30 68h1v1h-1zM33 68h2v1h-2zM36 68h2v1h-2zM88 68h2v1h-2zM91 68h2v1h-2zM95 68h2v1h-2zM102 68h2v1h-2zM30 69h1v1h-1zM33 69h2v1h-2zM36 69h2v1h-2zM88 69h2v1h-2zM91 69h2v1h-2zM95 69h2v1h-2zM102 69h2v1h-2zM30 70h1v1h-1zM33 70h2v1h-2zM37 70h1v1h-1zM88 70h1v1h-1zM91 70h2v1h-2zM95 70h2v1h-2zM102 70h1v1h-1zM30 71h1v1h-1zM33 71h2v1h-2zM37 71h2v1h-2zM87 71h2v1h-2zM91 71h2v1h-2zM95 71h1v1h-1zM102 71h1v1h-1zM30 72h2v1h-2zM33 72h2v1h-2zM37 72h2v1h-2zM87 72h2v1h-2zM91 72h2v1h-2zM94 72h2v1h-2zM101 72h2v1h-2zM30 73h2v1h-2zM34 73h2v1h-2zM38 73h1v1h-1zM87 73h1v1h-1zM90 73h2v1h-2zM94 73h2v1h-2zM101 73h2v1h-2zM104 73h1v1h-1zM31 74h2v1h-2zM34 74h2v1h-2zM38 74h1v1h-1zM87 74h1v1h-1zM90 74h2v1h-2zM93 74h2v1h-2zM101 74h1v1h-1zM104 74h1v1h-1zM24 75h2v1h-2zM31 75h2v1h-2zM35 75h2v1h-2zM89 75h2v1h-2zM93 75h2v1h-2zM100 75h2v1h-2zM103 75h2v1h-2zM22 76h1v1h-1zM25 76h1v1h-1zM32 76h2v1h-2zM36 76h2v1h-2zM41 76h2v1h-2zM83 76h2v1h-2zM88 76h2v1h-2zM92 76h2v1h-2zM100 76h1v1h-1zM103 76h1v1h-1zM23 77h1v1h-1zM26 77h1v1h-1zM33 77h2v1h-2zM37 77h3v1h-3zM43 77h7v1h-7zM76 77h7v1h-7zM86 77h3v1h-3zM91 77h2v1h-2zM99 77h1v1h-1zM102 77h1v1h-1zM23 78h2v1h-2zM26 78h2v1h-2zM34 78h2v1h-2zM39 78h4v1h-4zM83 78h4v1h-4zM90 78h2v1h-2zM98 78h2v1h-2zM101 78h2v1h-2zM24 79h2v1h-2zM27 79h2v1h-2zM36 79h3v1h-3zM44 79h38v1h-38zM87 79h3v1h-3zM97 79h2v1h-2zM100 79h2v1h-2zM25 80h2v1h-2zM28 80h2v1h-2zM38 80h6v1h-6zM82 80h6v1h-6zM96 80h2v1h-2zM99 80h2v1h-2zM26 81h2v1h-2zM30 81h2v1h-2zM44 81h38v1h-38zM94 81h2v1h-2zM98 81h2v1h-2zM28 82h2v1h-2zM32 82h2v1h-2zM92 82h2v1h-2zM96 82h2v1h-2zM29 83h3v1h-3zM34 83h4v1h-4zM88 83h4v1h-4zM94 83h3v1h-3zM31 84h3v1h-3zM38 84h7v1h-7zM81 84h7v1h-7zM92 84h3v1h-3zM34 85h4v1h-4zM45 85h36v1h-36zM88 85h4v1h-4zM38 86h6v1h-6zM82 86h6v1h-6zM44 87h38v1h-38z"/>
    <path style="fill:var(--st-roof2,#3a3f4b)" d="M39 14h1v1h-1zM38 15h1v1h-1zM38 16h1v1h-1zM38 17h1v1h-1zM38 18h1v1h-1zM38 19h1v1h-1zM38 20h1v1h-1zM37 21h1v1h-1zM37 22h1v1h-1zM37 23h1v1h-1zM37 24h1v1h-1zM37 25h1v1h-1zM36 26h2v1h-2zM36 27h1v1h-1zM36 28h1v1h-1zM36 29h1v1h-1zM36 30h1v1h-1zM36 31h1v1h-1zM35 32h2v1h-2zM35 33h1v1h-1zM35 34h1v1h-1zM35 35h1v1h-1zM35 36h1v1h-1zM35 37h1v1h-1zM15 38h1v1h-1zM34 38h2v1h-2zM15 39h1v1h-1zM34 39h1v1h-1zM15 40h1v1h-1zM34 40h1v1h-1zM14 41h3v1h-3zM34 41h1v1h-1zM111 41h1v1h-1zM14 42h3v1h-3zM34 42h1v1h-1zM111 42h1v1h-1zM14 43h3v1h-3zM34 43h1v1h-1zM111 43h1v1h-1zM13 44h3v1h-3zM33 44h2v1h-2zM111 44h2v1h-2zM13 45h3v1h-3zM33 45h1v1h-1zM111 45h2v1h-2zM13 46h2v1h-2zM33 46h1v1h-1zM111 46h2v1h-2zM33 47h1v1h-1zM111 47h2v1h-2zM12 48h1v1h-1zM33 48h1v1h-1zM111 48h3v1h-3zM12 49h1v1h-1zM33 49h1v1h-1zM111 49h3v1h-3zM12 50h2v1h-2zM32 50h2v1h-2zM111 50h1v1h-1zM113 50h1v1h-1zM12 51h2v1h-2zM32 51h1v1h-1zM111 51h1v1h-1zM113 51h1v1h-1zM11 52h3v1h-3zM32 52h1v1h-1zM111 52h1v1h-1zM113 52h2v1h-2zM12 53h3v1h-3zM32 53h1v1h-1zM113 53h2v1h-2zM11 54h1v1h-1zM32 54h1v1h-1zM113 54h2v1h-2zM11 55h1v1h-1zM32 55h1v1h-1zM112 55h3v1h-3zM11 56h2v1h-2zM31 56h1v1h-1zM112 56h1v1h-1zM114 56h1v1h-1zM11 57h2v1h-2zM31 57h1v1h-1zM112 57h1v1h-1zM114 57h1v1h-1zM10 58h3v1h-3zM31 58h1v1h-1zM112 58h1v1h-1zM114 58h2v1h-2zM10 59h1v1h-1zM13 59h1v1h-1zM31 59h1v1h-1zM114 59h2v1h-2zM10 60h1v1h-1zM31 60h1v1h-1zM113 60h3v1h-3zM10 61h2v1h-2zM31 61h1v1h-1zM113 61h1v1h-1zM115 61h1v1h-1zM10 62h2v1h-2zM30 62h1v1h-1zM113 62h1v1h-1zM115 62h1v1h-1zM11 63h2v1h-2zM30 63h1v1h-1zM114 63h2v1h-2zM12 64h1v1h-1zM30 64h1v1h-1zM114 64h1v1h-1zM30 65h1v1h-1zM114 65h1v1h-1zM30 66h1v1h-1zM114 66h1v1h-1zM10 67h1v1h-1zM29 67h2v1h-2zM113 67h2v1h-2zM11 68h1v1h-1zM29 68h1v1h-1zM113 68h1v1h-1zM11 69h2v1h-2zM29 69h1v1h-1zM113 69h1v1h-1zM12 70h1v1h-1zM29 70h1v1h-1zM113 70h2v1h-2zM12 71h1v1h-1zM29 71h1v1h-1zM11 72h1v1h-1zM29 72h1v1h-1zM113 72h1v1h-1zM12 73h1v1h-1zM28 73h2v1h-2zM113 73h1v1h-1zM12 74h1v1h-1zM113 75h1v1h-1zM20 87h1v1h-1zM105 87h1v1h-1zM20 88h2v1h-2zM103 88h2v1h-2zM21 89h1v1h-1zM103 89h1v1h-1zM105 89h1v1h-1zM21 90h1v1h-1zM102 90h2v1h-2zM26 91h1v1h-1zM101 91h2v1h-2zM104 91h1v1h-1zM26 92h1v1h-1zM30 92h1v1h-1zM98 92h1v1h-1zM100 92h2v1h-2zM25 93h2v1h-2zM30 93h1v1h-1zM35 93h1v1h-1zM94 93h1v1h-1zM97 93h2v1h-2zM100 93h2v1h-2zM25 94h3v1h-3zM29 94h2v1h-2zM35 94h1v1h-1zM41 94h6v1h-6zM79 94h5v1h-5zM89 94h1v1h-1zM93 94h2v1h-2zM96 94h2v1h-2zM99 94h2v1h-2zM27 95h1v1h-1zM29 95h3v1h-3zM34 95h2v1h-2zM40 95h8v1h-8zM49 95h12v1h-12zM63 95h12v1h-12zM77 95h6v1h-6zM88 95h2v1h-2zM92 95h2v1h-2zM96 95h3v1h-3zM28 96h4v1h-4zM34 96h2v1h-2zM40 96h7v1h-7zM49 96h10v1h-10zM63 96h10v1h-10zM77 96h4v1h-4zM87 96h3v1h-3zM91 96h3v1h-3zM95 96h2v1h-2zM31 97h1v1h-1zM33 97h4v1h-4zM39 97h7v1h-7zM49 97h8v1h-8zM63 97h8v1h-8zM77 97h3v1h-3zM86 97h3v1h-3zM90 97h5v1h-5zM34 98h3v1h-3zM38 98h7v1h-7zM50 98h5v1h-5zM63 98h5v1h-5zM76 98h3v1h-3zM85 98h7v1h-7zM38 99h6v1h-6zM50 99h3v1h-3zM63 99h3v1h-3zM76 99h2v1h-2zM84 99h4v1h-4zM63 100h1v1h-1z"/>
    <path style="fill:var(--st-walk,#30353f)" d="M45 15h36v1h-36zM42 16h8v1h-8zM76 16h8v1h-8zM39 17h4v1h-4zM83 17h4v1h-4zM39 18h2v1h-2zM85 18h3v1h-3zM87 19h2v1h-2zM88 20h2v1h-2zM89 21h2v1h-2zM90 22h1v1h-1zM90 23h2v1h-2zM91 24h1v1h-1zM91 25h2v1h-2zM92 26h1v1h-1zM92 27h2v1h-2zM92 28h2v1h-2zM92 29h2v1h-2zM93 30h1v1h-1zM93 31h2v1h-2zM93 32h2v1h-2zM93 33h2v1h-2zM94 34h1v1h-1zM94 35h1v1h-1zM94 36h2v1h-2zM94 37h2v1h-2zM94 38h2v1h-2zM95 39h1v1h-1zM95 40h1v1h-1zM95 41h2v1h-2zM95 42h2v1h-2zM95 43h2v1h-2zM95 44h2v1h-2zM96 45h1v1h-1zM96 46h2v1h-2zM96 47h2v1h-2zM96 48h2v1h-2zM96 49h2v1h-2zM97 50h1v1h-1zM97 51h2v1h-2zM97 52h2v1h-2zM97 53h2v1h-2zM97 54h2v1h-2zM98 55h1v1h-1zM98 56h2v1h-2zM98 57h2v1h-2zM98 58h2v1h-2zM98 59h2v1h-2zM98 60h2v1h-2zM98 61h2v1h-2zM98 62h2v1h-2zM99 63h1v1h-1zM99 64h1v1h-1zM99 65h1v1h-1zM99 66h1v1h-1zM99 67h1v1h-1zM99 68h1v1h-1zM98 69h2v1h-2zM98 70h2v1h-2zM98 71h2v1h-2zM98 72h2v1h-2zM98 73h1v1h-1zM27 74h2v1h-2zM97 74h2v1h-2zM28 75h1v1h-1zM97 75h1v1h-1zM28 76h2v1h-2zM96 76h2v1h-2zM29 77h2v1h-2zM95 77h2v1h-2zM30 78h2v1h-2zM94 78h2v1h-2zM31 79h2v1h-2zM93 79h2v1h-2zM33 80h2v1h-2zM91 80h2v1h-2zM35 81h3v1h-3zM88 81h3v1h-3zM38 82h7v1h-7zM81 82h7v1h-7zM45 83h36v1h-36z"/>
    <path style="fill:var(--st-runoff,#17281c)" d="M47 26h32v1h-32zM43 30h1v1h-1zM82 30h1v1h-1zM43 31h1v1h-1zM82 31h1v1h-1zM42 32h2v1h-2zM82 32h2v1h-2zM42 33h2v1h-2zM82 33h2v1h-2zM42 34h2v1h-2zM82 34h2v1h-2zM42 35h2v1h-2zM82 35h2v1h-2zM42 36h1v1h-1zM83 36h1v1h-1zM42 37h1v1h-1zM83 37h1v1h-1zM41 38h2v1h-2zM83 38h2v1h-2zM41 39h2v1h-2zM83 39h2v1h-2zM41 40h2v1h-2zM83 40h2v1h-2zM41 41h2v1h-2zM83 41h2v1h-2zM41 42h2v1h-2zM83 42h2v1h-2zM41 43h2v1h-2zM83 43h2v1h-2zM41 44h1v1h-1zM84 44h1v1h-1zM40 45h2v1h-2zM84 45h2v1h-2zM40 46h2v1h-2zM84 46h2v1h-2zM40 47h2v1h-2zM84 47h2v1h-2zM40 48h2v1h-2zM84 48h2v1h-2zM40 49h2v1h-2zM84 49h2v1h-2zM40 50h2v1h-2zM84 50h2v1h-2zM40 51h2v1h-2zM84 51h2v1h-2zM40 52h2v1h-2zM84 52h2v1h-2zM39 53h2v1h-2zM85 53h2v1h-2zM39 54h2v1h-2zM85 54h2v1h-2zM39 55h2v1h-2zM85 55h2v1h-2zM39 56h2v1h-2zM85 56h2v1h-2zM39 57h2v1h-2zM85 57h2v1h-2zM39 58h2v1h-2zM85 58h2v1h-2zM39 59h2v1h-2zM85 59h2v1h-2zM39 60h2v1h-2zM85 60h2v1h-2zM38 61h2v1h-2zM86 61h2v1h-2zM38 62h2v1h-2zM86 62h2v1h-2zM38 63h2v1h-2zM86 63h2v1h-2zM38 64h2v1h-2zM86 64h2v1h-2zM38 65h2v1h-2zM86 65h2v1h-2zM38 66h2v1h-2zM86 66h2v1h-2zM38 67h2v1h-2zM86 67h2v1h-2zM38 68h2v1h-2zM86 68h2v1h-2zM38 69h2v1h-2zM86 69h2v1h-2zM38 70h1v1h-1zM87 70h1v1h-1zM43 76h40v1h-40zM50 77h26v1h-26z"/>
    <path style="fill:var(--st-line,#2c4131)" d="M44 27h38v1h-38zM44 28h1v1h-1zM52 28h1v1h-1zM73 28h1v1h-1zM81 28h1v1h-1zM44 29h1v1h-1zM52 29h1v1h-1zM73 29h1v1h-1zM81 29h1v1h-1zM44 30h1v1h-1zM52 30h1v1h-1zM73 30h1v1h-1zM81 30h1v1h-1zM44 31h1v1h-1zM52 31h1v1h-1zM73 31h1v1h-1zM81 31h1v1h-1zM44 32h1v1h-1zM51 32h2v1h-2zM73 32h2v1h-2zM81 32h1v1h-1zM44 33h1v1h-1zM51 33h24v1h-24zM81 33h1v1h-1zM44 34h1v1h-1zM81 34h1v1h-1zM44 35h1v1h-1zM81 35h1v1h-1zM43 36h2v1h-2zM81 36h2v1h-2zM43 37h1v1h-1zM82 37h1v1h-1zM43 38h1v1h-1zM82 38h1v1h-1zM43 39h1v1h-1zM82 39h1v1h-1zM43 40h1v1h-1zM82 40h1v1h-1zM43 41h1v1h-1zM82 41h1v1h-1zM43 42h1v1h-1zM82 42h1v1h-1zM43 43h1v1h-1zM82 43h1v1h-1zM42 44h2v1h-2zM59 44h8v1h-8zM82 44h2v1h-2zM42 45h1v1h-1zM58 45h2v1h-2zM66 45h2v1h-2zM83 45h1v1h-1zM42 46h1v1h-1zM57 46h2v1h-2zM67 46h2v1h-2zM83 46h1v1h-1zM42 47h42v1h-42zM42 48h42v1h-42zM42 49h1v1h-1zM57 49h2v1h-2zM67 49h2v1h-2zM83 49h1v1h-1zM42 50h1v1h-1zM58 50h1v1h-1zM67 50h1v1h-1zM83 50h1v1h-1zM42 51h1v1h-1zM59 51h3v1h-3zM64 51h3v1h-3zM83 51h1v1h-1zM42 52h1v1h-1zM61 52h4v1h-4zM83 52h1v1h-1zM41 53h2v1h-2zM83 53h2v1h-2zM41 54h1v1h-1zM84 54h1v1h-1zM41 55h1v1h-1zM84 55h1v1h-1zM41 56h1v1h-1zM84 56h1v1h-1zM41 57h1v1h-1zM84 57h1v1h-1zM41 58h1v1h-1zM84 58h1v1h-1zM41 59h1v1h-1zM84 59h1v1h-1zM41 60h1v1h-1zM84 60h1v1h-1zM40 61h2v1h-2zM84 61h2v1h-2zM40 62h1v1h-1zM85 62h1v1h-1zM40 63h1v1h-1zM85 63h1v1h-1zM40 64h1v1h-1zM85 64h1v1h-1zM40 65h1v1h-1zM49 65h28v1h-28zM85 65h1v1h-1zM40 66h1v1h-1zM49 66h1v1h-1zM76 66h1v1h-1zM85 66h1v1h-1zM40 67h1v1h-1zM49 67h1v1h-1zM76 67h1v1h-1zM85 67h1v1h-1zM40 68h1v1h-1zM49 68h1v1h-1zM76 68h1v1h-1zM85 68h1v1h-1zM40 69h1v1h-1zM49 69h1v1h-1zM76 69h1v1h-1zM85 69h1v1h-1zM39 70h2v1h-2zM49 70h1v1h-1zM76 70h1v1h-1zM85 70h2v1h-2zM39 71h1v1h-1zM49 71h1v1h-1zM76 71h1v1h-1zM86 71h1v1h-1zM39 72h1v1h-1zM49 72h1v1h-1zM76 72h1v1h-1zM86 72h1v1h-1zM39 73h1v1h-1zM49 73h1v1h-1zM76 73h1v1h-1zM86 73h1v1h-1zM39 74h1v1h-1zM49 74h1v1h-1zM76 74h1v1h-1zM86 74h1v1h-1zM39 75h48v1h-48z"/>
    <path style="fill:var(--st-pitch1,#1f3526)" d="M45 28h7v1h-7zM53 28h20v1h-20zM74 28h7v1h-7zM45 29h7v1h-7zM53 29h20v1h-20zM74 29h7v1h-7zM45 30h7v1h-7zM53 30h20v1h-20zM74 30h7v1h-7zM45 35h36v1h-36zM45 36h36v1h-36zM44 37h38v1h-38zM44 38h38v1h-38zM44 43h38v1h-38zM44 44h15v1h-15zM67 44h15v1h-15zM43 45h15v1h-15zM60 45h6v1h-6zM68 45h15v1h-15zM43 46h14v1h-14zM59 46h8v1h-8zM69 46h14v1h-14zM43 53h40v1h-40zM42 54h42v1h-42zM42 55h42v1h-42zM42 56h42v1h-42zM42 57h42v1h-42zM41 63h44v1h-44zM41 64h44v1h-44zM41 65h8v1h-8zM77 65h8v1h-8zM41 66h8v1h-8zM50 66h26v1h-26zM77 66h8v1h-8zM41 67h8v1h-8zM50 67h26v1h-26zM77 67h8v1h-8zM41 68h8v1h-8zM50 68h26v1h-26zM77 68h8v1h-8z"/>
    <path style="fill:var(--st-pitch2,#1b2f21)" d="M45 31h7v1h-7zM53 31h20v1h-20zM74 31h7v1h-7zM45 32h6v1h-6zM53 32h20v1h-20zM75 32h6v1h-6zM45 33h6v1h-6zM75 33h6v1h-6zM45 34h36v1h-36zM44 39h38v1h-38zM44 40h38v1h-38zM44 41h38v1h-38zM44 42h38v1h-38zM43 49h14v1h-14zM59 49h8v1h-8zM69 49h14v1h-14zM43 50h15v1h-15zM59 50h8v1h-8zM68 50h15v1h-15zM43 51h16v1h-16zM62 51h2v1h-2zM67 51h16v1h-16zM43 52h18v1h-18zM65 52h18v1h-18zM42 58h42v1h-42zM42 59h42v1h-42zM42 60h42v1h-42zM42 61h42v1h-42zM41 62h44v1h-44zM41 69h8v1h-8zM50 69h26v1h-26zM77 69h8v1h-8zM41 70h8v1h-8zM50 70h26v1h-26zM77 70h8v1h-8zM40 71h9v1h-9zM50 71h26v1h-26zM77 71h9v1h-9zM40 72h9v1h-9zM50 72h26v1h-26zM77 72h9v1h-9zM40 73h9v1h-9zM50 73h26v1h-26zM77 73h9v1h-9zM40 74h9v1h-9zM50 74h26v1h-26zM77 74h9v1h-9z"/>
    <path style="fill:var(--st-glow,#2b2f3a)" d="M13 64h1v1h-1zM112 64h1v1h-1zM13 65h1v1h-1zM112 65h1v1h-1zM20 91h1v1h-1zM104 92h1v1h-1zM22 93h1v1h-1zM103 93h1v1h-1zM23 94h1v1h-1zM101 94h1v1h-1zM25 95h2v1h-2zM100 95h2v1h-2zM25 96h2v1h-2zM98 96h1v1h-1zM100 96h1v1h-1zM28 97h2v1h-2zM95 97h1v1h-1zM97 97h2v1h-2zM28 98h2v1h-2zM31 98h2v1h-2zM92 98h1v1h-1zM94 98h2v1h-2zM97 98h1v1h-1zM31 99h2v1h-2zM34 99h2v1h-2zM37 99h1v1h-1zM88 99h2v1h-2zM91 99h2v1h-2zM94 99h1v1h-1zM34 100h2v1h-2zM37 100h2v1h-2zM40 100h2v1h-2zM43 100h2v1h-2zM46 100h1v1h-1zM79 100h2v1h-2zM82 100h2v1h-2zM85 100h2v1h-2zM88 100h2v1h-2zM91 100h2v1h-2zM37 101h2v1h-2zM40 101h2v1h-2zM43 101h2v1h-2zM46 101h2v1h-2zM49 101h2v1h-2zM52 101h2v1h-2zM55 101h2v1h-2zM58 101h2v1h-2zM61 101h2v1h-2zM64 101h2v1h-2zM67 101h2v1h-2zM70 101h2v1h-2zM73 101h2v1h-2zM76 101h2v1h-2zM79 101h2v1h-2zM82 101h2v1h-2zM85 101h2v1h-2zM88 101h1v1h-1zM43 102h2v1h-2zM46 102h2v1h-2zM49 102h2v1h-2zM52 102h2v1h-2zM55 102h2v1h-2zM58 102h2v1h-2zM61 102h2v1h-2zM64 102h2v1h-2zM67 102h2v1h-2zM70 102h2v1h-2zM73 102h2v1h-2zM76 102h2v1h-2zM79 102h2v1h-2zM82 102h1v1h-1z"/>
    <path style="fill:var(--st-column,#1f222a)" d="M105 91h1v1h-1zM21 92h1v1h-1zM24 94h1v1h-1zM102 94h1v1h-1zM24 95h1v1h-1zM99 95h1v1h-1zM27 96h1v1h-1zM99 96h1v1h-1zM27 97h1v1h-1zM30 97h1v1h-1zM96 97h1v1h-1zM30 98h1v1h-1zM33 98h1v1h-1zM93 98h1v1h-1zM96 98h1v1h-1zM33 99h1v1h-1zM36 99h1v1h-1zM90 99h1v1h-1zM93 99h1v1h-1zM33 100h1v1h-1zM36 100h1v1h-1zM39 100h1v1h-1zM42 100h1v1h-1zM45 100h1v1h-1zM81 100h1v1h-1zM84 100h1v1h-1zM87 100h1v1h-1zM90 100h1v1h-1zM39 101h1v1h-1zM42 101h1v1h-1zM45 101h1v1h-1zM48 101h1v1h-1zM51 101h1v1h-1zM54 101h1v1h-1zM57 101h1v1h-1zM60 101h1v1h-1zM63 101h1v1h-1zM66 101h1v1h-1zM69 101h1v1h-1zM72 101h1v1h-1zM75 101h1v1h-1zM78 101h1v1h-1zM81 101h1v1h-1zM84 101h1v1h-1zM87 101h1v1h-1zM45 102h1v1h-1zM48 102h1v1h-1zM51 102h1v1h-1zM54 102h1v1h-1zM57 102h1v1h-1zM60 102h1v1h-1zM63 102h1v1h-1zM66 102h1v1h-1zM69 102h1v1h-1zM72 102h1v1h-1zM75 102h1v1h-1zM78 102h1v1h-1zM81 102h1v1h-1z"/>
    <path style="fill:var(--st-beam2,rgb(255 244 190 / 0))" d="M30 14h1v1h-1zM95 14h1v1h-1zM32 15h1v1h-1zM93 15h1v1h-1zM33 16h1v1h-1zM92 16h1v1h-1zM35 17h1v1h-1zM90 17h1v1h-1zM36 18h2v1h-2zM88 18h2v1h-2zM38 19h1v1h-1zM87 19h1v1h-1zM39 20h2v1h-2zM85 20h2v1h-2zM41 21h2v1h-2zM83 21h2v1h-2zM27 22h1v1h-1zM42 22h2v1h-2zM82 22h2v1h-2zM98 22h1v1h-1zM29 23h1v1h-1zM44 23h2v1h-2zM80 23h2v1h-2zM96 23h1v1h-1zM30 24h1v1h-1zM45 24h3v1h-3zM78 24h3v1h-3zM95 24h1v1h-1zM31 25h2v1h-2zM47 25h2v1h-2zM77 25h2v1h-2zM93 25h2v1h-2zM33 26h1v1h-1zM48 26h3v1h-3zM75 26h3v1h-3zM92 26h1v1h-1zM34 27h2v1h-2zM50 27h3v1h-3zM73 27h3v1h-3zM90 27h2v1h-2zM36 28h2v1h-2zM51 28h3v1h-3zM72 28h3v1h-3zM88 28h2v1h-2zM37 29h2v1h-2zM53 29h3v1h-3zM70 29h3v1h-3zM87 29h2v1h-2zM39 30h2v1h-2zM54 30h4v1h-4zM68 30h4v1h-4zM85 30h2v1h-2zM40 31h3v1h-3zM56 31h3v1h-3zM67 31h3v1h-3zM83 31h3v1h-3zM42 32h2v1h-2zM57 32h2v1h-2zM67 32h2v1h-2zM82 32h2v1h-2zM43 33h3v1h-3zM80 33h3v1h-3zM25 34h1v1h-1zM45 34h3v1h-3zM78 34h3v1h-3zM100 34h1v1h-1zM26 35h2v1h-2zM46 35h3v1h-3zM77 35h3v1h-3zM98 35h2v1h-2zM28 36h1v1h-1zM48 36h3v1h-3zM75 36h3v1h-3zM97 36h1v1h-1zM29 37h2v1h-2zM49 37h3v1h-3zM74 37h3v1h-3zM95 37h2v1h-2zM31 38h2v1h-2zM51 38h3v1h-3zM72 38h3v1h-3zM93 38h2v1h-2zM33 39h2v1h-2zM52 39h4v1h-4zM70 39h4v1h-4zM91 39h2v1h-2zM34 40h2v1h-2zM54 40h3v1h-3zM69 40h3v1h-3zM90 40h2v1h-2zM36 41h2v1h-2zM55 41h3v1h-3zM68 41h3v1h-3zM88 41h2v1h-2zM37 42h3v1h-3zM57 42h1v1h-1zM68 42h1v1h-1zM86 42h3v1h-3zM39 43h3v1h-3zM84 43h3v1h-3zM41 44h3v1h-3zM82 44h3v1h-3zM42 45h3v1h-3zM81 45h3v1h-3zM44 46h3v1h-3zM79 46h3v1h-3zM45 47h4v1h-4zM77 47h4v1h-4zM47 48h4v1h-4zM75 48h4v1h-4zM49 49h4v1h-4zM73 49h4v1h-4zM22 50h2v1h-2zM50 50h4v1h-4zM72 50h4v1h-4zM102 50h2v1h-2zM24 51h2v1h-2zM52 51h4v1h-4zM70 51h4v1h-4zM100 51h2v1h-2zM26 52h2v1h-2zM53 52h5v1h-5zM68 52h5v1h-5zM98 52h2v1h-2zM28 53h3v1h-3zM55 53h3v1h-3zM68 53h3v1h-3zM95 53h3v1h-3zM30 54h3v1h-3zM56 54h2v1h-2zM68 54h2v1h-2zM93 54h3v1h-3zM32 55h3v1h-3zM91 55h3v1h-3zM34 56h3v1h-3zM89 56h3v1h-3zM36 57h3v1h-3zM87 57h3v1h-3zM37 58h5v1h-5zM84 58h5v1h-5zM39 59h5v1h-5zM82 59h5v1h-5zM41 60h5v1h-5zM80 60h5v1h-5zM43 61h5v1h-5zM78 61h5v1h-5zM45 62h6v1h-6zM75 62h6v1h-6zM47 63h6v1h-6zM73 63h6v1h-6zM49 64h6v1h-6zM71 64h6v1h-6zM51 65h6v1h-6zM69 65h6v1h-6zM53 66h5v1h-5zM68 66h5v1h-5zM55 67h3v1h-3zM68 67h3v1h-3zM57 68h1v1h-1zM68 68h1v1h-1z"/>
    <path style="fill:var(--st-beam,rgb(255 244 190 / 0))" d="M31 14h1v1h-1zM94 14h1v1h-1zM31 15h1v1h-1zM33 15h1v1h-1zM92 15h1v1h-1zM94 15h1v1h-1zM32 16h1v1h-1zM34 16h1v1h-1zM91 16h1v1h-1zM93 16h1v1h-1zM34 17h1v1h-1zM36 17h1v1h-1zM89 17h1v1h-1zM91 17h1v1h-1zM35 18h1v1h-1zM38 18h1v1h-1zM87 18h1v1h-1zM90 18h1v1h-1zM36 19h2v1h-2zM39 19h2v1h-2zM85 19h2v1h-2zM88 19h2v1h-2zM38 20h1v1h-1zM41 20h2v1h-2zM83 20h2v1h-2zM87 20h1v1h-1zM39 21h2v1h-2zM43 21h2v1h-2zM81 21h2v1h-2zM85 21h2v1h-2zM28 22h1v1h-1zM41 22h1v1h-1zM44 22h3v1h-3zM79 22h3v1h-3zM84 22h1v1h-1zM97 22h1v1h-1zM28 23h1v1h-1zM30 23h1v1h-1zM42 23h2v1h-2zM46 23h3v1h-3zM77 23h3v1h-3zM82 23h2v1h-2zM95 23h1v1h-1zM97 23h1v1h-1zM29 24h1v1h-1zM31 24h1v1h-1zM43 24h2v1h-2zM48 24h2v1h-2zM76 24h2v1h-2zM81 24h2v1h-2zM94 24h1v1h-1zM96 24h1v1h-1zM30 25h1v1h-1zM33 25h1v1h-1zM45 25h2v1h-2zM49 25h3v1h-3zM74 25h3v1h-3zM79 25h2v1h-2zM92 25h1v1h-1zM95 25h1v1h-1zM32 26h1v1h-1zM34 26h2v1h-2zM46 26h2v1h-2zM51 26h3v1h-3zM72 26h3v1h-3zM78 26h2v1h-2zM90 26h2v1h-2zM93 26h1v1h-1zM33 27h1v1h-1zM36 27h2v1h-2zM47 27h3v1h-3zM53 27h3v1h-3zM70 27h3v1h-3zM76 27h3v1h-3zM88 27h2v1h-2zM92 27h1v1h-1zM35 28h1v1h-1zM38 28h2v1h-2zM49 28h2v1h-2zM54 28h4v1h-4zM68 28h4v1h-4zM75 28h2v1h-2zM86 28h2v1h-2zM90 28h1v1h-1zM36 29h1v1h-1zM39 29h3v1h-3zM50 29h3v1h-3zM56 29h3v1h-3zM67 29h3v1h-3zM73 29h3v1h-3zM84 29h3v1h-3zM89 29h1v1h-1zM37 30h2v1h-2zM41 30h2v1h-2zM52 30h2v1h-2zM58 30h1v1h-1zM67 30h1v1h-1zM72 30h2v1h-2zM83 30h2v1h-2zM87 30h2v1h-2zM39 31h1v1h-1zM43 31h2v1h-2zM53 31h3v1h-3zM70 31h3v1h-3zM81 31h2v1h-2zM86 31h1v1h-1zM40 32h2v1h-2zM44 32h3v1h-3zM54 32h3v1h-3zM69 32h3v1h-3zM79 32h3v1h-3zM84 32h2v1h-2zM41 33h2v1h-2zM46 33h3v1h-3zM56 33h3v1h-3zM67 33h3v1h-3zM77 33h3v1h-3zM83 33h2v1h-2zM24 34h1v1h-1zM26 34h1v1h-1zM43 34h2v1h-2zM48 34h3v1h-3zM57 34h2v1h-2zM67 34h2v1h-2zM75 34h3v1h-3zM81 34h2v1h-2zM99 34h1v1h-1zM101 34h1v1h-1zM25 35h1v1h-1zM28 35h1v1h-1zM44 35h2v1h-2zM49 35h4v1h-4zM58 35h1v1h-1zM67 35h1v1h-1zM73 35h4v1h-4zM80 35h2v1h-2zM97 35h1v1h-1zM100 35h1v1h-1zM27 36h1v1h-1zM29 36h2v1h-2zM45 36h3v1h-3zM51 36h3v1h-3zM72 36h3v1h-3zM78 36h3v1h-3zM95 36h2v1h-2zM98 36h1v1h-1zM28 37h1v1h-1zM31 37h2v1h-2zM47 37h2v1h-2zM52 37h4v1h-4zM70 37h4v1h-4zM77 37h2v1h-2zM93 37h2v1h-2zM97 37h1v1h-1zM30 38h1v1h-1zM33 38h2v1h-2zM48 38h3v1h-3zM54 38h4v1h-4zM68 38h4v1h-4zM75 38h3v1h-3zM91 38h2v1h-2zM95 38h1v1h-1zM31 39h2v1h-2zM35 39h2v1h-2zM49 39h3v1h-3zM56 39h2v1h-2zM68 39h2v1h-2zM74 39h3v1h-3zM89 39h2v1h-2zM93 39h2v1h-2zM32 40h2v1h-2zM36 40h3v1h-3zM51 40h3v1h-3zM57 40h1v1h-1zM68 40h1v1h-1zM72 40h3v1h-3zM87 40h3v1h-3zM92 40h2v1h-2zM34 41h2v1h-2zM38 41h3v1h-3zM52 41h3v1h-3zM71 41h3v1h-3zM85 41h3v1h-3zM90 41h2v1h-2zM35 42h2v1h-2zM40 42h3v1h-3zM53 42h4v1h-4zM69 42h4v1h-4zM83 42h3v1h-3zM89 42h2v1h-2zM37 43h2v1h-2zM42 43h3v1h-3zM55 43h3v1h-3zM68 43h3v1h-3zM81 43h3v1h-3zM87 43h2v1h-2zM38 44h3v1h-3zM44 44h3v1h-3zM56 44h2v1h-2zM68 44h2v1h-2zM79 44h3v1h-3zM85 44h3v1h-3zM40 45h2v1h-2zM45 45h4v1h-4zM57 45h1v1h-1zM68 45h1v1h-1zM77 45h4v1h-4zM84 45h2v1h-2zM41 46h3v1h-3zM47 46h4v1h-4zM75 46h4v1h-4zM82 46h3v1h-3zM42 47h3v1h-3zM49 47h4v1h-4zM73 47h4v1h-4zM81 47h3v1h-3zM44 48h3v1h-3zM51 48h4v1h-4zM71 48h4v1h-4zM79 48h3v1h-3zM22 49h1v1h-1zM45 49h4v1h-4zM53 49h5v1h-5zM68 49h5v1h-5zM77 49h4v1h-4zM103 49h1v1h-1zM24 50h2v1h-2zM47 50h3v1h-3zM54 50h4v1h-4zM68 50h4v1h-4zM76 50h3v1h-3zM100 50h2v1h-2zM23 51h1v1h-1zM26 51h2v1h-2zM48 51h4v1h-4zM56 51h2v1h-2zM68 51h2v1h-2zM74 51h4v1h-4zM98 51h2v1h-2zM102 51h1v1h-1zM24 52h2v1h-2zM28 52h3v1h-3zM49 52h4v1h-4zM73 52h4v1h-4zM95 52h3v1h-3zM100 52h2v1h-2zM26 53h2v1h-2zM31 53h3v1h-3zM51 53h4v1h-4zM71 53h4v1h-4zM92 53h3v1h-3zM98 53h2v1h-2zM28 54h2v1h-2zM33 54h3v1h-3zM52 54h4v1h-4zM70 54h4v1h-4zM90 54h3v1h-3zM96 54h2v1h-2zM29 55h3v1h-3zM35 55h4v1h-4zM54 55h4v1h-4zM68 55h4v1h-4zM87 55h4v1h-4zM94 55h3v1h-3zM31 56h3v1h-3zM37 56h5v1h-5zM55 56h3v1h-3zM68 56h3v1h-3zM84 56h5v1h-5zM92 56h3v1h-3zM33 57h3v1h-3zM39 57h5v1h-5zM57 57h1v1h-1zM68 57h1v1h-1zM82 57h5v1h-5zM90 57h3v1h-3zM34 58h3v1h-3zM42 58h5v1h-5zM79 58h5v1h-5zM89 58h3v1h-3zM36 59h3v1h-3zM44 59h6v1h-6zM76 59h6v1h-6zM87 59h3v1h-3zM38 60h3v1h-3zM46 60h6v1h-6zM74 60h6v1h-6zM85 60h3v1h-3zM39 61h4v1h-4zM48 61h7v1h-7zM71 61h7v1h-7zM83 61h4v1h-4zM41 62h4v1h-4zM51 62h7v1h-7zM68 62h7v1h-7zM81 62h4v1h-4zM43 63h4v1h-4zM53 63h5v1h-5zM68 63h5v1h-5zM79 63h4v1h-4zM44 64h5v1h-5zM55 64h3v1h-3zM68 64h3v1h-3zM77 64h5v1h-5zM46 65h5v1h-5zM57 65h1v1h-1zM68 65h1v1h-1zM75 65h5v1h-5zM48 66h5v1h-5zM73 66h5v1h-5zM49 67h6v1h-6zM71 67h6v1h-6zM51 68h6v1h-6zM69 68h6v1h-6zM53 69h5v1h-5zM68 69h5v1h-5zM54 70h4v1h-4zM68 70h4v1h-4zM56 71h2v1h-2zM68 71h2v1h-2z"/>
  </symbol>
  <use href="#art"/>
</svg>
